ISO-10303-21;
HEADER;
/* Generated by software containing ST-Developer
 * from STEP Tools, Inc. (www.steptools.com) 
 */
/* OPTION: strings as raw bytes, not using required /X/ escapes */

FILE_DESCRIPTION(
/* description */ ('Unknown'),
/* implementation_level */ '2;1');

FILE_NAME(
/* name */ '74479325207xxx_252012',
/* time_stamp */ '2024-09-18T10:59:43+02:00',
/* author */ ('Unknown'),
/* organization */ ('Unknown'),
/* preprocessor_version */ 'ST-DEVELOPER v19.4',
/* originating_system */ 'Solid Edge',
/* authorisation */ 'Unknown');

FILE_SCHEMA (('AUTOMOTIVE_DESIGN {1 0 10303 214 3 1 1}'));
ENDSEC;

DATA;
#10=PROPERTY_DEFINITION_REPRESENTATION(#14,#12);
#11=PROPERTY_DEFINITION_REPRESENTATION(#15,#13);
#12=REPRESENTATION('',(#16),#857);
#13=REPRESENTATION('',(#17),#857);
#14=PROPERTY_DEFINITION('pmi validation property','',#862);
#15=PROPERTY_DEFINITION('pmi validation property','',#862);
#16=VALUE_REPRESENTATION_ITEM('number of annotations',COUNT_MEASURE(0.));
#17=VALUE_REPRESENTATION_ITEM('number of views',COUNT_MEASURE(0.));
#18=SHAPE_REPRESENTATION_RELATIONSHIP('','',#567,#19);
#19=ADVANCED_BREP_SHAPE_REPRESENTATION('',(#565),#857);
#20=SPHERICAL_SURFACE('',#590,0.02);
#21=SPHERICAL_SURFACE('',#603,0.02);
#22=SPHERICAL_SURFACE('',#605,0.02);
#23=SPHERICAL_SURFACE('',#611,0.02);
#24=ELLIPSE('',#588,0.0282842712474619,0.02);
#25=ELLIPSE('',#594,0.0282842712474619,0.02);
#26=ELLIPSE('',#601,0.0282842712474619,0.02);
#27=ELLIPSE('',#614,0.0282842712474619,0.02);
#28=CYLINDRICAL_SURFACE('',#587,0.02);
#29=CYLINDRICAL_SURFACE('',#593,0.02);
#30=CYLINDRICAL_SURFACE('',#596,0.02);
#31=CYLINDRICAL_SURFACE('',#598,0.02);
#32=CYLINDRICAL_SURFACE('',#600,0.02);
#33=CYLINDRICAL_SURFACE('',#607,0.02);
#34=CYLINDRICAL_SURFACE('',#609,0.02);
#35=CYLINDRICAL_SURFACE('',#613,0.02);
#36=CYLINDRICAL_SURFACE('',#615,0.02);
#37=CYLINDRICAL_SURFACE('',#616,0.02);
#38=CIRCLE('',#576,0.02);
#39=CIRCLE('',#577,0.02);
#40=CIRCLE('',#579,0.02);
#41=CIRCLE('',#580,0.02);
#42=CIRCLE('',#582,0.02);
#43=CIRCLE('',#583,0.02);
#44=CIRCLE('',#585,0.02);
#45=CIRCLE('',#586,0.02);
#46=CIRCLE('',#589,0.02);
#47=CIRCLE('',#591,0.02);
#48=CIRCLE('',#592,0.02);
#49=CIRCLE('',#595,0.02);
#50=CIRCLE('',#597,0.02);
#51=CIRCLE('',#599,0.02);
#52=CIRCLE('',#602,0.02);
#53=CIRCLE('',#604,0.02);
#54=CIRCLE('',#606,0.02);
#55=CIRCLE('',#608,0.02);
#56=CIRCLE('',#610,0.02);
#57=CIRCLE('',#612,0.02);
#58=ORIENTED_EDGE('',*,*,#166,.T.);
#59=ORIENTED_EDGE('',*,*,#167,.T.);
#60=ORIENTED_EDGE('',*,*,#168,.T.);
#61=ORIENTED_EDGE('',*,*,#169,.T.);
#62=ORIENTED_EDGE('',*,*,#170,.F.);
#63=ORIENTED_EDGE('',*,*,#171,.T.);
#64=ORIENTED_EDGE('',*,*,#172,.T.);
#65=ORIENTED_EDGE('',*,*,#173,.T.);
#66=ORIENTED_EDGE('',*,*,#174,.F.);
#67=ORIENTED_EDGE('',*,*,#175,.T.);
#68=ORIENTED_EDGE('',*,*,#176,.T.);
#69=ORIENTED_EDGE('',*,*,#177,.T.);
#70=ORIENTED_EDGE('',*,*,#178,.T.);
#71=ORIENTED_EDGE('',*,*,#179,.T.);
#72=ORIENTED_EDGE('',*,*,#180,.T.);
#73=ORIENTED_EDGE('',*,*,#181,.T.);
#74=ORIENTED_EDGE('',*,*,#182,.T.);
#75=ORIENTED_EDGE('',*,*,#183,.T.);
#76=ORIENTED_EDGE('',*,*,#184,.T.);
#77=ORIENTED_EDGE('',*,*,#185,.T.);
#78=ORIENTED_EDGE('',*,*,#186,.T.);
#79=ORIENTED_EDGE('',*,*,#187,.T.);
#80=ORIENTED_EDGE('',*,*,#188,.T.);
#81=ORIENTED_EDGE('',*,*,#189,.T.);
#82=ORIENTED_EDGE('',*,*,#190,.F.);
#83=ORIENTED_EDGE('',*,*,#191,.T.);
#84=ORIENTED_EDGE('',*,*,#174,.T.);
#85=ORIENTED_EDGE('',*,*,#192,.T.);
#86=ORIENTED_EDGE('',*,*,#193,.T.);
#87=ORIENTED_EDGE('',*,*,#194,.T.);
#88=ORIENTED_EDGE('',*,*,#190,.T.);
#89=ORIENTED_EDGE('',*,*,#195,.T.);
#90=ORIENTED_EDGE('',*,*,#196,.T.);
#91=ORIENTED_EDGE('',*,*,#184,.F.);
#92=ORIENTED_EDGE('',*,*,#176,.F.);
#93=ORIENTED_EDGE('',*,*,#197,.T.);
#94=ORIENTED_EDGE('',*,*,#198,.T.);
#95=ORIENTED_EDGE('',*,*,#199,.T.);
#96=ORIENTED_EDGE('',*,*,#198,.F.);
#97=ORIENTED_EDGE('',*,*,#200,.T.);
#98=ORIENTED_EDGE('',*,*,#201,.T.);
#99=ORIENTED_EDGE('',*,*,#170,.T.);
#100=ORIENTED_EDGE('',*,*,#202,.T.);
#101=ORIENTED_EDGE('',*,*,#203,.T.);
#102=ORIENTED_EDGE('',*,*,#196,.F.);
#103=ORIENTED_EDGE('',*,*,#204,.T.);
#104=ORIENTED_EDGE('',*,*,#178,.F.);
#105=ORIENTED_EDGE('',*,*,#205,.F.);
#106=ORIENTED_EDGE('',*,*,#185,.F.);
#107=ORIENTED_EDGE('',*,*,#206,.F.);
#108=ORIENTED_EDGE('',*,*,#205,.T.);
#109=ORIENTED_EDGE('',*,*,#207,.F.);
#110=ORIENTED_EDGE('',*,*,#180,.F.);
#111=ORIENTED_EDGE('',*,*,#208,.T.);
#112=ORIENTED_EDGE('',*,*,#202,.F.);
#113=ORIENTED_EDGE('',*,*,#173,.F.);
#114=ORIENTED_EDGE('',*,*,#209,.F.);
#115=ORIENTED_EDGE('',*,*,#207,.T.);
#116=ORIENTED_EDGE('',*,*,#181,.F.);
#117=ORIENTED_EDGE('',*,*,#210,.F.);
#118=ORIENTED_EDGE('',*,*,#189,.F.);
#119=ORIENTED_EDGE('',*,*,#206,.T.);
#120=ORIENTED_EDGE('',*,*,#188,.F.);
#121=ORIENTED_EDGE('',*,*,#211,.F.);
#122=ORIENTED_EDGE('',*,*,#182,.F.);
#123=ORIENTED_EDGE('',*,*,#168,.F.);
#124=ORIENTED_EDGE('',*,*,#212,.T.);
#125=ORIENTED_EDGE('',*,*,#193,.F.);
#126=ORIENTED_EDGE('',*,*,#183,.F.);
#127=ORIENTED_EDGE('',*,*,#213,.F.);
#128=ORIENTED_EDGE('',*,*,#210,.T.);
#129=ORIENTED_EDGE('',*,*,#209,.T.);
#130=ORIENTED_EDGE('',*,*,#214,.F.);
#131=ORIENTED_EDGE('',*,*,#213,.T.);
#132=ORIENTED_EDGE('',*,*,#211,.T.);
#133=ORIENTED_EDGE('',*,*,#215,.F.);
#134=ORIENTED_EDGE('',*,*,#214,.T.);
#135=ORIENTED_EDGE('',*,*,#172,.F.);
#136=ORIENTED_EDGE('',*,*,#216,.F.);
#137=ORIENTED_EDGE('',*,*,#186,.F.);
#138=ORIENTED_EDGE('',*,*,#215,.T.);
#139=ORIENTED_EDGE('',*,*,#187,.F.);
#140=ORIENTED_EDGE('',*,*,#217,.F.);
#141=ORIENTED_EDGE('',*,*,#169,.F.);
#142=ORIENTED_EDGE('',*,*,#217,.T.);
#143=ORIENTED_EDGE('',*,*,#216,.T.);
#144=ORIENTED_EDGE('',*,*,#218,.F.);
#145=ORIENTED_EDGE('',*,*,#201,.F.);
#146=ORIENTED_EDGE('',*,*,#219,.T.);
#147=ORIENTED_EDGE('',*,*,#166,.F.);
#148=ORIENTED_EDGE('',*,*,#218,.T.);
#149=ORIENTED_EDGE('',*,*,#171,.F.);
#150=ORIENTED_EDGE('',*,*,#208,.F.);
#151=ORIENTED_EDGE('',*,*,#179,.F.);
#152=ORIENTED_EDGE('',*,*,#204,.F.);
#153=ORIENTED_EDGE('',*,*,#195,.F.);
#154=ORIENTED_EDGE('',*,*,#192,.F.);
#155=ORIENTED_EDGE('',*,*,#177,.F.);
#156=ORIENTED_EDGE('',*,*,#199,.F.);
#157=ORIENTED_EDGE('',*,*,#203,.F.);
#158=ORIENTED_EDGE('',*,*,#212,.F.);
#159=ORIENTED_EDGE('',*,*,#167,.F.);
#160=ORIENTED_EDGE('',*,*,#219,.F.);
#161=ORIENTED_EDGE('',*,*,#200,.F.);
#162=ORIENTED_EDGE('',*,*,#197,.F.);
#163=ORIENTED_EDGE('',*,*,#175,.F.);
#164=ORIENTED_EDGE('',*,*,#191,.F.);
#165=ORIENTED_EDGE('',*,*,#194,.F.);
#166=EDGE_CURVE('',#220,#221,#252,.F.);
#167=EDGE_CURVE('',#221,#222,#253,.F.);
#168=EDGE_CURVE('',#222,#223,#254,.T.);
#169=EDGE_CURVE('',#223,#220,#255,.T.);
#170=EDGE_CURVE('',#224,#225,#256,.T.);
#171=EDGE_CURVE('',#224,#226,#257,.T.);
#172=EDGE_CURVE('',#226,#227,#258,.T.);
#173=EDGE_CURVE('',#227,#225,#259,.F.);
#174=EDGE_CURVE('',#228,#229,#260,.T.);
#175=EDGE_CURVE('',#228,#230,#261,.T.);
#176=EDGE_CURVE('',#230,#231,#262,.T.);
#177=EDGE_CURVE('',#231,#229,#263,.T.);
#178=EDGE_CURVE('',#232,#233,#264,.F.);
#179=EDGE_CURVE('',#233,#234,#265,.F.);
#180=EDGE_CURVE('',#234,#235,#266,.T.);
#181=EDGE_CURVE('',#235,#232,#267,.T.);
#182=EDGE_CURVE('',#236,#237,#268,.T.);
#183=EDGE_CURVE('',#237,#238,#269,.F.);
#184=EDGE_CURVE('',#238,#239,#270,.T.);
#185=EDGE_CURVE('',#239,#236,#271,.T.);
#186=EDGE_CURVE('',#240,#241,#272,.F.);
#187=EDGE_CURVE('',#241,#242,#273,.F.);
#188=EDGE_CURVE('',#242,#243,#274,.F.);
#189=EDGE_CURVE('',#243,#240,#275,.F.);
#190=EDGE_CURVE('',#244,#245,#276,.T.);
#191=EDGE_CURVE('',#244,#228,#38,.F.);
#192=EDGE_CURVE('',#229,#245,#39,.F.);
#193=EDGE_CURVE('',#238,#246,#40,.F.);
#194=EDGE_CURVE('',#246,#244,#277,.F.);
#195=EDGE_CURVE('',#245,#247,#278,.F.);
#196=EDGE_CURVE('',#247,#239,#41,.F.);
#197=EDGE_CURVE('',#230,#248,#42,.T.);
#198=EDGE_CURVE('',#248,#249,#279,.T.);
#199=EDGE_CURVE('',#249,#231,#43,.T.);
#200=EDGE_CURVE('',#248,#250,#280,.F.);
#201=EDGE_CURVE('',#250,#224,#44,.T.);
#202=EDGE_CURVE('',#225,#251,#45,.T.);
#203=EDGE_CURVE('',#251,#249,#281,.F.);
#204=EDGE_CURVE('',#247,#233,#24,.T.);
#205=EDGE_CURVE('',#236,#232,#46,.T.);
#206=EDGE_CURVE('',#236,#243,#47,.F.);
#207=EDGE_CURVE('',#243,#232,#48,.F.);
#208=EDGE_CURVE('',#234,#251,#25,.T.);
#209=EDGE_CURVE('',#235,#227,#49,.T.);
#210=EDGE_CURVE('',#240,#235,#50,.T.);
#211=EDGE_CURVE('',#237,#242,#51,.T.);
#212=EDGE_CURVE('',#222,#246,#26,.T.);
#213=EDGE_CURVE('',#223,#237,#52,.T.);
#214=EDGE_CURVE('',#240,#227,#53,.F.);
#215=EDGE_CURVE('',#223,#242,#54,.F.);
#216=EDGE_CURVE('',#241,#226,#55,.T.);
#217=EDGE_CURVE('',#220,#241,#56,.T.);
#218=EDGE_CURVE('',#220,#226,#57,.F.);
#219=EDGE_CURVE('',#250,#221,#27,.T.);
#220=VERTEX_POINT('',#748);
#221=VERTEX_POINT('',#749);
#222=VERTEX_POINT('',#751);
#223=VERTEX_POINT('',#753);
#224=VERTEX_POINT('',#757);
#225=VERTEX_POINT('',#758);
#226=VERTEX_POINT('',#760);
#227=VERTEX_POINT('',#762);
#228=VERTEX_POINT('',#766);
#229=VERTEX_POINT('',#767);
#230=VERTEX_POINT('',#769);
#231=VERTEX_POINT('',#771);
#232=VERTEX_POINT('',#775);
#233=VERTEX_POINT('',#776);
#234=VERTEX_POINT('',#778);
#235=VERTEX_POINT('',#780);
#236=VERTEX_POINT('',#784);
#237=VERTEX_POINT('',#785);
#238=VERTEX_POINT('',#787);
#239=VERTEX_POINT('',#789);
#240=VERTEX_POINT('',#793);
#241=VERTEX_POINT('',#794);
#242=VERTEX_POINT('',#796);
#243=VERTEX_POINT('',#798);
#244=VERTEX_POINT('',#802);
#245=VERTEX_POINT('',#803);
#246=VERTEX_POINT('',#808);
#247=VERTEX_POINT('',#811);
#248=VERTEX_POINT('',#815);
#249=VERTEX_POINT('',#817);
#250=VERTEX_POINT('',#821);
#251=VERTEX_POINT('',#824);
#252=LINE('',#747,#282);
#253=LINE('',#750,#283);
#254=LINE('',#752,#284);
#255=LINE('',#754,#285);
#256=LINE('',#756,#286);
#257=LINE('',#759,#287);
#258=LINE('',#761,#288);
#259=LINE('',#763,#289);
#260=LINE('',#765,#290);
#261=LINE('',#768,#291);
#262=LINE('',#770,#292);
#263=LINE('',#772,#293);
#264=LINE('',#774,#294);
#265=LINE('',#777,#295);
#266=LINE('',#779,#296);
#267=LINE('',#781,#297);
#268=LINE('',#783,#298);
#269=LINE('',#786,#299);
#270=LINE('',#788,#300);
#271=LINE('',#790,#301);
#272=LINE('',#792,#302);
#273=LINE('',#795,#303);
#274=LINE('',#797,#304);
#275=LINE('',#799,#305);
#276=LINE('',#801,#306);
#277=LINE('',#809,#307);
#278=LINE('',#810,#308);
#279=LINE('',#816,#309);
#280=LINE('',#820,#310);
#281=LINE('',#825,#311);
#282=VECTOR('',#621,1000.);
#283=VECTOR('',#622,1000.);
#284=VECTOR('',#623,1000.);
#285=VECTOR('',#624,1000.);
#286=VECTOR('',#627,1000.);
#287=VECTOR('',#628,1000.);
#288=VECTOR('',#629,1000.);
#289=VECTOR('',#630,1000.);
#290=VECTOR('',#633,1000.);
#291=VECTOR('',#634,1000.);
#292=VECTOR('',#635,1000.);
#293=VECTOR('',#636,1000.);
#294=VECTOR('',#639,1000.);
#295=VECTOR('',#640,1000.);
#296=VECTOR('',#641,1000.);
#297=VECTOR('',#642,1000.);
#298=VECTOR('',#645,1000.);
#299=VECTOR('',#646,1000.);
#300=VECTOR('',#647,1000.);
#301=VECTOR('',#648,1000.);
#302=VECTOR('',#651,1000.);
#303=VECTOR('',#652,1000.);
#304=VECTOR('',#653,1000.);
#305=VECTOR('',#654,1000.);
#306=VECTOR('',#657,1000.);
#307=VECTOR('',#666,1000.);
#308=VECTOR('',#667,1000.);
#309=VECTOR('',#674,1000.);
#310=VECTOR('',#679,1000.);
#311=VECTOR('',#684,1000.);
#312=EDGE_LOOP('',(#58,#59,#60,#61));
#313=EDGE_LOOP('',(#62,#63,#64,#65));
#314=EDGE_LOOP('',(#66,#67,#68,#69));
#315=EDGE_LOOP('',(#70,#71,#72,#73));
#316=EDGE_LOOP('',(#74,#75,#76,#77));
#317=EDGE_LOOP('',(#78,#79,#80,#81));
#318=EDGE_LOOP('',(#82,#83,#84,#85));
#319=EDGE_LOOP('',(#86,#87,#88,#89,#90,#91));
#320=EDGE_LOOP('',(#92,#93,#94,#95));
#321=EDGE_LOOP('',(#96,#97,#98,#99,#100,#101));
#322=EDGE_LOOP('',(#102,#103,#104,#105,#106));
#323=EDGE_LOOP('',(#107,#108,#109));
#324=EDGE_LOOP('',(#110,#111,#112,#113,#114));
#325=EDGE_LOOP('',(#115,#116,#117,#118));
#326=EDGE_LOOP('',(#119,#120,#121,#122));
#327=EDGE_LOOP('',(#123,#124,#125,#126,#127));
#328=EDGE_LOOP('',(#128,#129,#130));
#329=EDGE_LOOP('',(#131,#132,#133));
#330=EDGE_LOOP('',(#134,#135,#136,#137));
#331=EDGE_LOOP('',(#138,#139,#140,#141));
#332=EDGE_LOOP('',(#142,#143,#144));
#333=EDGE_LOOP('',(#145,#146,#147,#148,#149));
#334=EDGE_LOOP('',(#150,#151,#152,#153,#154,#155,#156,#157));
#335=EDGE_LOOP('',(#158,#159,#160,#161,#162,#163,#164,#165));
#336=FACE_BOUND('',#312,.T.);
#337=FACE_BOUND('',#313,.T.);
#338=FACE_BOUND('',#314,.T.);
#339=FACE_BOUND('',#315,.T.);
#340=FACE_BOUND('',#316,.T.);
#341=FACE_BOUND('',#317,.T.);
#342=FACE_BOUND('',#318,.T.);
#343=FACE_BOUND('',#319,.T.);
#344=FACE_BOUND('',#320,.T.);
#345=FACE_BOUND('',#321,.T.);
#346=FACE_BOUND('',#322,.T.);
#347=FACE_BOUND('',#323,.T.);
#348=FACE_BOUND('',#324,.T.);
#349=FACE_BOUND('',#325,.T.);
#350=FACE_BOUND('',#326,.T.);
#351=FACE_BOUND('',#327,.T.);
#352=FACE_BOUND('',#328,.T.);
#353=FACE_BOUND('',#329,.T.);
#354=FACE_BOUND('',#330,.T.);
#355=FACE_BOUND('',#331,.T.);
#356=FACE_BOUND('',#332,.T.);
#357=FACE_BOUND('',#333,.T.);
#358=FACE_BOUND('',#334,.T.);
#359=FACE_BOUND('',#335,.T.);
#360=PLANE('',#569);
#361=PLANE('',#570);
#362=PLANE('',#571);
#363=PLANE('',#572);
#364=PLANE('',#573);
#365=PLANE('',#574);
#366=PLANE('',#575);
#367=PLANE('',#578);
#368=PLANE('',#581);
#369=PLANE('',#584);
#370=STYLED_ITEM('',(#394),#540);
#371=STYLED_ITEM('',(#395),#541);
#372=STYLED_ITEM('',(#396),#542);
#373=STYLED_ITEM('',(#397),#543);
#374=STYLED_ITEM('',(#398),#544);
#375=STYLED_ITEM('',(#399),#545);
#376=STYLED_ITEM('',(#400),#546);
#377=STYLED_ITEM('',(#401),#547);
#378=STYLED_ITEM('',(#402),#548);
#379=STYLED_ITEM('',(#403),#549);
#380=STYLED_ITEM('',(#404),#550);
#381=STYLED_ITEM('',(#405),#551);
#382=STYLED_ITEM('',(#406),#552);
#383=STYLED_ITEM('',(#407),#553);
#384=STYLED_ITEM('',(#408),#554);
#385=STYLED_ITEM('',(#409),#555);
#386=STYLED_ITEM('',(#410),#556);
#387=STYLED_ITEM('',(#411),#557);
#388=STYLED_ITEM('',(#412),#558);
#389=STYLED_ITEM('',(#413),#559);
#390=STYLED_ITEM('',(#414),#560);
#391=STYLED_ITEM('',(#415),#561);
#392=STYLED_ITEM('',(#416),#562);
#393=STYLED_ITEM('',(#417),#563);
#394=PRESENTATION_STYLE_ASSIGNMENT((#418));
#395=PRESENTATION_STYLE_ASSIGNMENT((#419));
#396=PRESENTATION_STYLE_ASSIGNMENT((#420));
#397=PRESENTATION_STYLE_ASSIGNMENT((#421));
#398=PRESENTATION_STYLE_ASSIGNMENT((#422));
#399=PRESENTATION_STYLE_ASSIGNMENT((#423));
#400=PRESENTATION_STYLE_ASSIGNMENT((#424));
#401=PRESENTATION_STYLE_ASSIGNMENT((#425));
#402=PRESENTATION_STYLE_ASSIGNMENT((#426));
#403=PRESENTATION_STYLE_ASSIGNMENT((#427));
#404=PRESENTATION_STYLE_ASSIGNMENT((#428));
#405=PRESENTATION_STYLE_ASSIGNMENT((#429));
#406=PRESENTATION_STYLE_ASSIGNMENT((#430));
#407=PRESENTATION_STYLE_ASSIGNMENT((#431));
#408=PRESENTATION_STYLE_ASSIGNMENT((#432));
#409=PRESENTATION_STYLE_ASSIGNMENT((#433));
#410=PRESENTATION_STYLE_ASSIGNMENT((#434));
#411=PRESENTATION_STYLE_ASSIGNMENT((#435));
#412=PRESENTATION_STYLE_ASSIGNMENT((#436));
#413=PRESENTATION_STYLE_ASSIGNMENT((#437));
#414=PRESENTATION_STYLE_ASSIGNMENT((#438));
#415=PRESENTATION_STYLE_ASSIGNMENT((#439));
#416=PRESENTATION_STYLE_ASSIGNMENT((#440));
#417=PRESENTATION_STYLE_ASSIGNMENT((#441));
#418=SURFACE_STYLE_USAGE(.BOTH.,#442);
#419=SURFACE_STYLE_USAGE(.BOTH.,#443);
#420=SURFACE_STYLE_USAGE(.BOTH.,#444);
#421=SURFACE_STYLE_USAGE(.BOTH.,#445);
#422=SURFACE_STYLE_USAGE(.BOTH.,#446);
#423=SURFACE_STYLE_USAGE(.BOTH.,#447);
#424=SURFACE_STYLE_USAGE(.BOTH.,#448);
#425=SURFACE_STYLE_USAGE(.BOTH.,#449);
#426=SURFACE_STYLE_USAGE(.BOTH.,#450);
#427=SURFACE_STYLE_USAGE(.BOTH.,#451);
#428=SURFACE_STYLE_USAGE(.BOTH.,#452);
#429=SURFACE_STYLE_USAGE(.BOTH.,#453);
#430=SURFACE_STYLE_USAGE(.BOTH.,#454);
#431=SURFACE_STYLE_USAGE(.BOTH.,#455);
#432=SURFACE_STYLE_USAGE(.BOTH.,#456);
#433=SURFACE_STYLE_USAGE(.BOTH.,#457);
#434=SURFACE_STYLE_USAGE(.BOTH.,#458);
#435=SURFACE_STYLE_USAGE(.BOTH.,#459);
#436=SURFACE_STYLE_USAGE(.BOTH.,#460);
#437=SURFACE_STYLE_USAGE(.BOTH.,#461);
#438=SURFACE_STYLE_USAGE(.BOTH.,#462);
#439=SURFACE_STYLE_USAGE(.BOTH.,#463);
#440=SURFACE_STYLE_USAGE(.BOTH.,#464);
#441=SURFACE_STYLE_USAGE(.BOTH.,#465);
#442=SURFACE_SIDE_STYLE('',(#466));
#443=SURFACE_SIDE_STYLE('',(#467));
#444=SURFACE_SIDE_STYLE('',(#468));
#445=SURFACE_SIDE_STYLE('',(#469));
#446=SURFACE_SIDE_STYLE('',(#470));
#447=SURFACE_SIDE_STYLE('',(#471));
#448=SURFACE_SIDE_STYLE('',(#472));
#449=SURFACE_SIDE_STYLE('',(#473));
#450=SURFACE_SIDE_STYLE('',(#474));
#451=SURFACE_SIDE_STYLE('',(#475));
#452=SURFACE_SIDE_STYLE('',(#476));
#453=SURFACE_SIDE_STYLE('',(#477));
#454=SURFACE_SIDE_STYLE('',(#478));
#455=SURFACE_SIDE_STYLE('',(#479));
#456=SURFACE_SIDE_STYLE('',(#480));
#457=SURFACE_SIDE_STYLE('',(#481));
#458=SURFACE_SIDE_STYLE('',(#482));
#459=SURFACE_SIDE_STYLE('',(#483));
#460=SURFACE_SIDE_STYLE('',(#484));
#461=SURFACE_SIDE_STYLE('',(#485));
#462=SURFACE_SIDE_STYLE('',(#486));
#463=SURFACE_SIDE_STYLE('',(#487));
#464=SURFACE_SIDE_STYLE('',(#488));
#465=SURFACE_SIDE_STYLE('',(#489));
#466=SURFACE_STYLE_FILL_AREA(#490);
#467=SURFACE_STYLE_FILL_AREA(#491);
#468=SURFACE_STYLE_FILL_AREA(#492);
#469=SURFACE_STYLE_FILL_AREA(#493);
#470=SURFACE_STYLE_FILL_AREA(#494);
#471=SURFACE_STYLE_FILL_AREA(#495);
#472=SURFACE_STYLE_FILL_AREA(#496);
#473=SURFACE_STYLE_FILL_AREA(#497);
#474=SURFACE_STYLE_FILL_AREA(#498);
#475=SURFACE_STYLE_FILL_AREA(#499);
#476=SURFACE_STYLE_FILL_AREA(#500);
#477=SURFACE_STYLE_FILL_AREA(#501);
#478=SURFACE_STYLE_FILL_AREA(#502);
#479=SURFACE_STYLE_FILL_AREA(#503);
#480=SURFACE_STYLE_FILL_AREA(#504);
#481=SURFACE_STYLE_FILL_AREA(#505);
#482=SURFACE_STYLE_FILL_AREA(#506);
#483=SURFACE_STYLE_FILL_AREA(#507);
#484=SURFACE_STYLE_FILL_AREA(#508);
#485=SURFACE_STYLE_FILL_AREA(#509);
#486=SURFACE_STYLE_FILL_AREA(#510);
#487=SURFACE_STYLE_FILL_AREA(#511);
#488=SURFACE_STYLE_FILL_AREA(#512);
#489=SURFACE_STYLE_FILL_AREA(#513);
#490=FILL_AREA_STYLE('',(#514));
#491=FILL_AREA_STYLE('',(#515));
#492=FILL_AREA_STYLE('',(#516));
#493=FILL_AREA_STYLE('',(#517));
#494=FILL_AREA_STYLE('',(#518));
#495=FILL_AREA_STYLE('',(#519));
#496=FILL_AREA_STYLE('',(#520));
#497=FILL_AREA_STYLE('',(#521));
#498=FILL_AREA_STYLE('',(#522));
#499=FILL_AREA_STYLE('',(#523));
#500=FILL_AREA_STYLE('',(#524));
#501=FILL_AREA_STYLE('',(#525));
#502=FILL_AREA_STYLE('',(#526));
#503=FILL_AREA_STYLE('',(#527));
#504=FILL_AREA_STYLE('',(#528));
#505=FILL_AREA_STYLE('',(#529));
#506=FILL_AREA_STYLE('',(#530));
#507=FILL_AREA_STYLE('',(#531));
#508=FILL_AREA_STYLE('',(#532));
#509=FILL_AREA_STYLE('',(#533));
#510=FILL_AREA_STYLE('',(#534));
#511=FILL_AREA_STYLE('',(#535));
#512=FILL_AREA_STYLE('',(#536));
#513=FILL_AREA_STYLE('',(#537));
#514=FILL_AREA_STYLE_COLOUR('',#538);
#515=FILL_AREA_STYLE_COLOUR('',#538);
#516=FILL_AREA_STYLE_COLOUR('',#538);
#517=FILL_AREA_STYLE_COLOUR('',#538);
#518=FILL_AREA_STYLE_COLOUR('',#538);
#519=FILL_AREA_STYLE_COLOUR('',#538);
#520=FILL_AREA_STYLE_COLOUR('',#538);
#521=FILL_AREA_STYLE_COLOUR('',#539);
#522=FILL_AREA_STYLE_COLOUR('',#538);
#523=FILL_AREA_STYLE_COLOUR('',#539);
#524=FILL_AREA_STYLE_COLOUR('',#538);
#525=FILL_AREA_STYLE_COLOUR('',#538);
#526=FILL_AREA_STYLE_COLOUR('',#538);
#527=FILL_AREA_STYLE_COLOUR('',#538);
#528=FILL_AREA_STYLE_COLOUR('',#538);
#529=FILL_AREA_STYLE_COLOUR('',#538);
#530=FILL_AREA_STYLE_COLOUR('',#538);
#531=FILL_AREA_STYLE_COLOUR('',#538);
#532=FILL_AREA_STYLE_COLOUR('',#538);
#533=FILL_AREA_STYLE_COLOUR('',#538);
#534=FILL_AREA_STYLE_COLOUR('',#538);
#535=FILL_AREA_STYLE_COLOUR('',#538);
#536=FILL_AREA_STYLE_COLOUR('',#538);
#537=FILL_AREA_STYLE_COLOUR('',#538);
#538=COLOUR_RGB('',0.200000002980232,0.200000002980232,0.200000002980232);
#539=COLOUR_RGB('',0.699999988079071,0.699999988079071,0.699999988079071);
#540=ADVANCED_FACE('',(#336),#360,.F.);
#541=ADVANCED_FACE('',(#337),#361,.F.);
#542=ADVANCED_FACE('',(#338),#362,.T.);
#543=ADVANCED_FACE('',(#339),#363,.F.);
#544=ADVANCED_FACE('',(#340),#364,.F.);
#545=ADVANCED_FACE('',(#341),#365,.F.);
#546=ADVANCED_FACE('',(#342),#366,.F.);
#547=ADVANCED_FACE('',(#343),#367,.F.);
#548=ADVANCED_FACE('',(#344),#368,.T.);
#549=ADVANCED_FACE('',(#345),#369,.T.);
#550=ADVANCED_FACE('',(#346),#28,.T.);
#551=ADVANCED_FACE('',(#347),#20,.T.);
#552=ADVANCED_FACE('',(#348),#29,.T.);
#553=ADVANCED_FACE('',(#349),#30,.T.);
#554=ADVANCED_FACE('',(#350),#31,.T.);
#555=ADVANCED_FACE('',(#351),#32,.T.);
#556=ADVANCED_FACE('',(#352),#21,.T.);
#557=ADVANCED_FACE('',(#353),#22,.T.);
#558=ADVANCED_FACE('',(#354),#33,.T.);
#559=ADVANCED_FACE('',(#355),#34,.T.);
#560=ADVANCED_FACE('',(#356),#23,.T.);
#561=ADVANCED_FACE('',(#357),#35,.T.);
#562=ADVANCED_FACE('',(#358),#36,.T.);
#563=ADVANCED_FACE('',(#359),#37,.T.);
#564=CLOSED_SHELL('',(#540,#541,#542,#543,#544,#545,#546,#547,#548,#549,
#550,#551,#552,#553,#554,#555,#556,#557,#558,#559,#560,#561,#562,#563));
#565=MANIFOLD_SOLID_BREP('',#564);
#566=SHAPE_DEFINITION_REPRESENTATION(#862,#567);
#567=SHAPE_REPRESENTATION('74479325207xxx_252012',(#568),#857);
#568=AXIS2_PLACEMENT_3D('',#745,#617,#618);
#569=AXIS2_PLACEMENT_3D('',#746,#619,#620);
#570=AXIS2_PLACEMENT_3D('',#755,#625,#626);
#571=AXIS2_PLACEMENT_3D('',#764,#631,#632);
#572=AXIS2_PLACEMENT_3D('',#773,#637,#638);
#573=AXIS2_PLACEMENT_3D('',#782,#643,#644);
#574=AXIS2_PLACEMENT_3D('',#791,#649,#650);
#575=AXIS2_PLACEMENT_3D('',#800,#655,#656);
#576=AXIS2_PLACEMENT_3D('',#804,#658,#659);
#577=AXIS2_PLACEMENT_3D('',#805,#660,#661);
#578=AXIS2_PLACEMENT_3D('',#806,#662,#663);
#579=AXIS2_PLACEMENT_3D('',#807,#664,#665);
#580=AXIS2_PLACEMENT_3D('',#812,#668,#669);
#581=AXIS2_PLACEMENT_3D('',#813,#670,#671);
#582=AXIS2_PLACEMENT_3D('',#814,#672,#673);
#583=AXIS2_PLACEMENT_3D('',#818,#675,#676);
#584=AXIS2_PLACEMENT_3D('',#819,#677,#678);
#585=AXIS2_PLACEMENT_3D('',#822,#680,#681);
#586=AXIS2_PLACEMENT_3D('',#823,#682,#683);
#587=AXIS2_PLACEMENT_3D('',#826,#685,#686);
#588=AXIS2_PLACEMENT_3D('',#827,#687,#688);
#589=AXIS2_PLACEMENT_3D('',#828,#689,#690);
#590=AXIS2_PLACEMENT_3D('',#829,#691,#692);
#591=AXIS2_PLACEMENT_3D('',#830,#693,#694);
#592=AXIS2_PLACEMENT_3D('',#831,#695,#696);
#593=AXIS2_PLACEMENT_3D('',#832,#697,#698);
#594=AXIS2_PLACEMENT_3D('',#833,#699,#700);
#595=AXIS2_PLACEMENT_3D('',#834,#701,#702);
#596=AXIS2_PLACEMENT_3D('',#835,#703,#704);
#597=AXIS2_PLACEMENT_3D('',#836,#705,#706);
#598=AXIS2_PLACEMENT_3D('',#837,#707,#708);
#599=AXIS2_PLACEMENT_3D('',#838,#709,#710);
#600=AXIS2_PLACEMENT_3D('',#839,#711,#712);
#601=AXIS2_PLACEMENT_3D('',#840,#713,#714);
#602=AXIS2_PLACEMENT_3D('',#841,#715,#716);
#603=AXIS2_PLACEMENT_3D('',#842,#717,#718);
#604=AXIS2_PLACEMENT_3D('',#843,#719,#720);
#605=AXIS2_PLACEMENT_3D('',#844,#721,#722);
#606=AXIS2_PLACEMENT_3D('',#845,#723,#724);
#607=AXIS2_PLACEMENT_3D('',#846,#725,#726);
#608=AXIS2_PLACEMENT_3D('',#847,#727,#728);
#609=AXIS2_PLACEMENT_3D('',#848,#729,#730);
#610=AXIS2_PLACEMENT_3D('',#849,#731,#732);
#611=AXIS2_PLACEMENT_3D('',#850,#733,#734);
#612=AXIS2_PLACEMENT_3D('',#851,#735,#736);
#613=AXIS2_PLACEMENT_3D('',#852,#737,#738);
#614=AXIS2_PLACEMENT_3D('',#853,#739,#740);
#615=AXIS2_PLACEMENT_3D('',#854,#741,#742);
#616=AXIS2_PLACEMENT_3D('',#855,#743,#744);
#617=DIRECTION('',(0.,0.,1.));
#618=DIRECTION('',(1.,0.,0.));
#619=DIRECTION('',(0.,0.,-1.));
#620=DIRECTION('',(-1.,0.,0.));
#621=DIRECTION('',(0.,1.,0.));
#622=DIRECTION('',(-1.,0.,0.));
#623=DIRECTION('',(0.,1.,0.));
#624=DIRECTION('',(-1.,0.,0.));
#625=DIRECTION('',(1.,0.,1.0842021724855E-16));
#626=DIRECTION('',(1.0842021724855E-16,0.,-1.));
#627=DIRECTION('',(3.46944695195362E-16,0.,-1.));
#628=DIRECTION('',(0.,1.,0.));
#629=DIRECTION('',(1.0842021724855E-16,0.,-1.));
#630=DIRECTION('',(0.,1.,0.));
#631=DIRECTION('',(0.,-1.,0.));
#632=DIRECTION('',(0.,0.,-1.));
#633=DIRECTION('',(3.46944695195362E-16,0.,-1.));
#634=DIRECTION('',(-1.,0.,0.));
#635=DIRECTION('',(3.46944695195362E-16,0.,-1.));
#636=DIRECTION('',(1.,0.,3.46944695195361E-16));
#637=DIRECTION('',(-3.46944695195361E-16,0.,1.));
#638=DIRECTION('',(1.,0.,3.46944695195361E-16));
#639=DIRECTION('',(0.,1.,0.));
#640=DIRECTION('',(1.,0.,3.46944695195361E-16));
#641=DIRECTION('',(0.,1.,0.));
#642=DIRECTION('',(1.,0.,3.46944695195361E-16));
#643=DIRECTION('',(-1.,0.,-1.08420217248551E-16));
#644=DIRECTION('',(-1.08420217248551E-16,0.,1.));
#645=DIRECTION('',(-1.08420217248551E-16,0.,1.));
#646=DIRECTION('',(0.,1.,0.));
#647=DIRECTION('',(3.46944695195362E-16,0.,-1.));
#648=DIRECTION('',(0.,1.,0.));
#649=DIRECTION('',(0.,-1.,0.));
#650=DIRECTION('',(0.,0.,-1.));
#651=DIRECTION('',(1.0842021724855E-16,0.,-1.));
#652=DIRECTION('',(-1.,0.,0.));
#653=DIRECTION('',(-1.08420217248551E-16,0.,1.));
#654=DIRECTION('',(1.,0.,3.46944695195361E-16));
#655=DIRECTION('',(-1.,0.,-3.46944695195362E-16));
#656=DIRECTION('',(-3.46944695195362E-16,0.,1.));
#657=DIRECTION('',(3.46944695195362E-16,0.,-1.));
#658=DIRECTION('',(-1.,0.,-3.46944695195362E-16));
#659=DIRECTION('',(-3.46944695195362E-16,0.,1.));
#660=DIRECTION('',(-1.,0.,-3.46944695195362E-16));
#661=DIRECTION('',(-3.46944695195362E-16,0.,1.));
#662=DIRECTION('',(1.35525271560688E-16,1.,4.70197740328915E-32));
#663=DIRECTION('',(-1.,1.35525271560688E-16,0.));
#664=DIRECTION('',(1.35525271560688E-16,1.,4.70197740328915E-32));
#665=DIRECTION('',(-1.,1.35525271560688E-16,0.));
#666=DIRECTION('',(1.,0.,0.));
#667=DIRECTION('',(-1.,0.,-3.46944695195361E-16));
#668=DIRECTION('',(1.35525271560688E-16,1.,4.70197740328915E-32));
#669=DIRECTION('',(-1.,1.35525271560688E-16,0.));
#670=DIRECTION('',(-1.,0.,-3.46944695195362E-16));
#671=DIRECTION('',(-3.46944695195362E-16,0.,1.));
#672=DIRECTION('',(-1.,0.,-3.46944695195362E-16));
#673=DIRECTION('',(-3.46944695195362E-16,0.,1.));
#674=DIRECTION('',(3.46944695195362E-16,0.,-1.));
#675=DIRECTION('',(-1.,0.,-3.46944695195362E-16));
#676=DIRECTION('',(-3.46944695195362E-16,0.,1.));
#677=DIRECTION('',(0.,-1.,0.));
#678=DIRECTION('',(0.,0.,-1.));
#679=DIRECTION('',(1.,0.,0.));
#680=DIRECTION('',(0.,-1.,0.));
#681=DIRECTION('',(0.,0.,-1.));
#682=DIRECTION('',(0.,-1.,0.));
#683=DIRECTION('',(0.,0.,-1.));
#684=DIRECTION('',(-1.,0.,-3.46944695195361E-16));
#685=DIRECTION('',(0.,1.,0.));
#686=DIRECTION('',(0.,0.,1.));
#687=DIRECTION('',(0.707106781186547,0.707106781186547,2.4532694666934E-16));
#688=DIRECTION('',(-0.707106781186547,0.707106781186547,-2.4532694666934E-16));
#689=DIRECTION('',(0.,1.,0.));
#690=DIRECTION('',(0.,0.,1.));
#691=DIRECTION('',(0.,0.,-1.));
#692=DIRECTION('',(-1.,0.,0.));
#693=DIRECTION('',(0.,0.,-1.));
#694=DIRECTION('',(-1.,0.,0.));
#695=DIRECTION('',(1.,0.,0.));
#696=DIRECTION('',(0.,0.,-1.));
#697=DIRECTION('',(0.,1.,0.));
#698=DIRECTION('',(0.,0.,1.));
#699=DIRECTION('',(-0.707106781186547,0.707106781186547,-2.4532694666934E-16));
#700=DIRECTION('',(0.707106781186547,0.707106781186547,2.4532694666934E-16));
#701=DIRECTION('',(0.,1.,0.));
#702=DIRECTION('',(0.,0.,1.));
#703=DIRECTION('',(1.,0.,3.46944695195361E-16));
#704=DIRECTION('',(3.46944695195361E-16,0.,-1.));
#705=DIRECTION('',(-1.,0.,0.));
#706=DIRECTION('',(0.,0.,1.));
#707=DIRECTION('',(-1.08420217248551E-16,0.,1.));
#708=DIRECTION('',(1.,0.,1.08420217248551E-16));
#709=DIRECTION('',(0.,0.,1.));
#710=DIRECTION('',(1.,0.,0.));
#711=DIRECTION('',(0.,1.,0.));
#712=DIRECTION('',(0.,0.,1.));
#713=DIRECTION('',(0.707106781186547,0.707106781186547,0.));
#714=DIRECTION('',(-0.707106781186547,0.707106781186547,0.));
#715=DIRECTION('',(0.,1.,0.));
#716=DIRECTION('',(0.,0.,1.));
#717=DIRECTION('',(0.,0.,-1.));
#718=DIRECTION('',(-1.,0.,0.));
#719=DIRECTION('',(0.,0.,-1.));
#720=DIRECTION('',(-1.,0.,0.));
#721=DIRECTION('',(1.,0.,0.));
#722=DIRECTION('',(0.,0.,-1.));
#723=DIRECTION('',(1.,0.,0.));
#724=DIRECTION('',(0.,0.,-1.));
#725=DIRECTION('',(1.0842021724855E-16,0.,-1.));
#726=DIRECTION('',(-1.,0.,-1.0842021724855E-16));
#727=DIRECTION('',(0.,0.,1.));
#728=DIRECTION('',(1.,0.,0.));
#729=DIRECTION('',(-1.,0.,0.));
#730=DIRECTION('',(0.,0.,1.));
#731=DIRECTION('',(-1.,0.,0.));
#732=DIRECTION('',(0.,0.,1.));
#733=DIRECTION('',(0.,1.,0.));
#734=DIRECTION('',(0.,0.,1.));
#735=DIRECTION('',(0.,1.,0.));
#736=DIRECTION('',(0.,0.,1.));
#737=DIRECTION('',(0.,1.,0.));
#738=DIRECTION('',(0.,0.,1.));
#739=DIRECTION('',(-0.707106781186547,0.707106781186547,0.));
#740=DIRECTION('',(0.707106781186547,0.707106781186547,0.));
#741=DIRECTION('',(-1.,0.,-3.46944695195361E-16));
#742=DIRECTION('',(-3.46944695195361E-16,0.,1.));
#743=DIRECTION('',(1.,0.,0.));
#744=DIRECTION('',(0.,0.,-1.));
#745=CARTESIAN_POINT('',(0.,0.,0.));
#746=CARTESIAN_POINT('',(1.25,-0.6,1.));
#747=CARTESIAN_POINT('',(-1.23,-0.6,1.));
#748=CARTESIAN_POINT('',(-1.23,0.58,1.));
#749=CARTESIAN_POINT('',(-1.23,-0.58,1.));
#750=CARTESIAN_POINT('',(0.449999999999999,-0.58,1.));
#751=CARTESIAN_POINT('',(1.23,-0.58,1.));
#752=CARTESIAN_POINT('',(1.23,-0.6,1.));
#753=CARTESIAN_POINT('',(1.23,0.58,1.));
#754=CARTESIAN_POINT('',(1.25,0.58,1.));
#755=CARTESIAN_POINT('',(-1.25,-0.6,1.));
#756=CARTESIAN_POINT('',(-1.25,-0.5975,0.999999999999999));
#757=CARTESIAN_POINT('',(-1.25,-0.5975,0.98));
#758=CARTESIAN_POINT('',(-1.25,-0.5975,-0.98));
#759=CARTESIAN_POINT('',(-1.25,-0.6,0.98));
#760=CARTESIAN_POINT('',(-1.25,0.58,0.98));
#761=CARTESIAN_POINT('',(-1.25,0.58,1.));
#762=CARTESIAN_POINT('',(-1.25,0.58,-0.98));
#763=CARTESIAN_POINT('',(-1.25,-0.6,-0.98));
#764=CARTESIAN_POINT('',(0.,-0.6,0.));
#765=CARTESIAN_POINT('',(0.449999999999999,-0.6,1.));
#766=CARTESIAN_POINT('',(0.449999999999999,-0.6,0.98));
#767=CARTESIAN_POINT('',(0.45,-0.6,-0.979999999999999));
#768=CARTESIAN_POINT('',(-0.45,-0.6,0.98));
#769=CARTESIAN_POINT('',(-0.45,-0.6,0.98));
#770=CARTESIAN_POINT('',(-0.45,-0.6,0.999999999999999));
#771=CARTESIAN_POINT('',(-0.45,-0.6,-0.98));
#772=CARTESIAN_POINT('',(0.45,-0.6,-0.979999999999999));
#773=CARTESIAN_POINT('',(-1.25,-0.6,-1.));
#774=CARTESIAN_POINT('',(1.23,-0.6,-0.999999999999999));
#775=CARTESIAN_POINT('',(1.23,0.58,-0.999999999999999));
#776=CARTESIAN_POINT('',(1.23,-0.58,-0.999999999999999));
#777=CARTESIAN_POINT('',(-0.45,-0.58,-1.));
#778=CARTESIAN_POINT('',(-1.23,-0.58,-1.));
#779=CARTESIAN_POINT('',(-1.23,-0.6,-1.));
#780=CARTESIAN_POINT('',(-1.23,0.58,-1.));
#781=CARTESIAN_POINT('',(-1.25,0.58,-1.));
#782=CARTESIAN_POINT('',(1.25,-0.6,-0.999999999999999));
#783=CARTESIAN_POINT('',(1.25,0.58,-0.999999999999999));
#784=CARTESIAN_POINT('',(1.25,0.58,-0.979999999999999));
#785=CARTESIAN_POINT('',(1.25,0.58,0.98));
#786=CARTESIAN_POINT('',(1.25,-0.6,0.98));
#787=CARTESIAN_POINT('',(1.25,-0.5975,0.98));
#788=CARTESIAN_POINT('',(1.25,-0.5975,1.));
#789=CARTESIAN_POINT('',(1.25,-0.5975,-0.979999999999999));
#790=CARTESIAN_POINT('',(1.25,-0.6,-0.979999999999999));
#791=CARTESIAN_POINT('',(0.,0.6,0.));
#792=CARTESIAN_POINT('',(-1.23,0.6,-1.33356867215717E-16));
#793=CARTESIAN_POINT('',(-1.23,0.6,-0.98));
#794=CARTESIAN_POINT('',(-1.23,0.6,0.98));
#795=CARTESIAN_POINT('',(0.,0.6,0.98));
#796=CARTESIAN_POINT('',(1.23,0.6,0.98));
#797=CARTESIAN_POINT('',(1.23,0.6,1.33356867215717E-16));
#798=CARTESIAN_POINT('',(1.23,0.6,-0.979999999999999));
#799=CARTESIAN_POINT('',(3.40005801291454E-16,0.6,-0.98));
#800=CARTESIAN_POINT('',(0.449999999999999,-0.6,1.));
#801=CARTESIAN_POINT('',(0.449999999999999,-0.5975,1.));
#802=CARTESIAN_POINT('',(0.449999999999999,-0.5975,0.989682458365518));
#803=CARTESIAN_POINT('',(0.45,-0.5975,-0.989682458365518));
#804=CARTESIAN_POINT('',(0.449999999999999,-0.58,0.98));
#805=CARTESIAN_POINT('',(0.45,-0.58,-0.979999999999999));
#806=CARTESIAN_POINT('',(0.449999999999999,-0.5975,1.));
#807=CARTESIAN_POINT('',(1.23,-0.5975,0.98));
#808=CARTESIAN_POINT('',(1.2475,-0.5975,0.989682458365518));
#809=CARTESIAN_POINT('',(1.2475,-0.5975,0.989682458365518));
#810=CARTESIAN_POINT('',(0.45,-0.5975,-0.989682458365518));
#811=CARTESIAN_POINT('',(1.2475,-0.5975,-0.989682458365518));
#812=CARTESIAN_POINT('',(1.23,-0.5975,-0.979999999999999));
#813=CARTESIAN_POINT('',(-0.45,-0.6,0.999999999999999));
#814=CARTESIAN_POINT('',(-0.45,-0.58,0.98));
#815=CARTESIAN_POINT('',(-0.45,-0.5975,0.989682458365518));
#816=CARTESIAN_POINT('',(-0.45,-0.5975,0.999999999999999));
#817=CARTESIAN_POINT('',(-0.45,-0.5975,-0.989682458365518));
#818=CARTESIAN_POINT('',(-0.45,-0.58,-0.98));
#819=CARTESIAN_POINT('',(-0.45,-0.5975,0.999999999999999));
#820=CARTESIAN_POINT('',(-0.45,-0.5975,0.989682458365518));
#821=CARTESIAN_POINT('',(-1.2475,-0.5975,0.989682458365518));
#822=CARTESIAN_POINT('',(-1.23,-0.5975,0.98));
#823=CARTESIAN_POINT('',(-1.23,-0.5975,-0.98));
#824=CARTESIAN_POINT('',(-1.2475,-0.5975,-0.989682458365518));
#825=CARTESIAN_POINT('',(-1.2475,-0.5975,-0.989682458365518));
#826=CARTESIAN_POINT('',(1.23,-0.6,-0.979999999999999));
#827=CARTESIAN_POINT('',(1.23,-0.58,-0.979999999999999));
#828=CARTESIAN_POINT('',(1.23,0.58,-0.979999999999999));
#829=CARTESIAN_POINT('',(1.23,0.58,-0.979999999999999));
#830=CARTESIAN_POINT('',(1.23,0.58,-0.979999999999999));
#831=CARTESIAN_POINT('',(1.23,0.58,-0.979999999999999));
#832=CARTESIAN_POINT('',(-1.23,-0.6,-0.98));
#833=CARTESIAN_POINT('',(-1.23,-0.58,-0.98));
#834=CARTESIAN_POINT('',(-1.23,0.58,-0.98));
#835=CARTESIAN_POINT('',(-1.25,0.58,-0.98));
#836=CARTESIAN_POINT('',(-1.23,0.58,-0.98));
#837=CARTESIAN_POINT('',(1.23,0.58,-0.999999999999999));
#838=CARTESIAN_POINT('',(1.23,0.58,0.98));
#839=CARTESIAN_POINT('',(1.23,-0.6,0.98));
#840=CARTESIAN_POINT('',(1.23,-0.58,0.98));
#841=CARTESIAN_POINT('',(1.23,0.58,0.98));
#842=CARTESIAN_POINT('',(-1.23,0.58,-0.98));
#843=CARTESIAN_POINT('',(-1.23,0.58,-0.98));
#844=CARTESIAN_POINT('',(1.23,0.58,0.98));
#845=CARTESIAN_POINT('',(1.23,0.58,0.98));
#846=CARTESIAN_POINT('',(-1.23,0.58,1.));
#847=CARTESIAN_POINT('',(-1.23,0.58,0.98));
#848=CARTESIAN_POINT('',(1.25,0.58,0.98));
#849=CARTESIAN_POINT('',(-1.23,0.58,0.98));
#850=CARTESIAN_POINT('',(-1.23,0.58,0.98));
#851=CARTESIAN_POINT('',(-1.23,0.58,0.98));
#852=CARTESIAN_POINT('',(-1.23,-0.6,0.98));
#853=CARTESIAN_POINT('',(-1.23,-0.58,0.98));
#854=CARTESIAN_POINT('',(3.40005801291454E-16,-0.58,-0.98));
#855=CARTESIAN_POINT('',(0.,-0.58,0.98));
#856=MECHANICAL_DESIGN_GEOMETRIC_PRESENTATION_REPRESENTATION('',(#370,#371,
#372,#373,#374,#375,#376,#377,#378,#379,#380,#381,#382,#383,#384,#385,#386,
#387,#388,#389,#390,#391,#392,#393),#857);
#857=(
GEOMETRIC_REPRESENTATION_CONTEXT(3)
GLOBAL_UNCERTAINTY_ASSIGNED_CONTEXT((#858))
GLOBAL_UNIT_ASSIGNED_CONTEXT((#861,#860,#859))
REPRESENTATION_CONTEXT('74479325207xxx_252012',
'TOP_LEVEL_ASSEMBLY_PART')
);
#858=UNCERTAINTY_MEASURE_WITH_UNIT(LENGTH_MEASURE(0.005),#861,
'DISTANCE_ACCURACY_VALUE','Maximum Tolerance applied to model');
#859=(
NAMED_UNIT(*)
SI_UNIT($,.STERADIAN.)
SOLID_ANGLE_UNIT()
);
#860=(
NAMED_UNIT(*)
PLANE_ANGLE_UNIT()
SI_UNIT($,.RADIAN.)
);
#861=(
LENGTH_UNIT()
NAMED_UNIT(*)
SI_UNIT(.MILLI.,.METRE.)
);
#862=PRODUCT_DEFINITION_SHAPE('','',#863);
#863=PRODUCT_DEFINITION('','',#865,#864);
#864=PRODUCT_DEFINITION_CONTEXT('',#871,'design');
#865=PRODUCT_DEFINITION_FORMATION_WITH_SPECIFIED_SOURCE('','',#867,
 .NOT_KNOWN.);
#866=PRODUCT_RELATED_PRODUCT_CATEGORY('','',(#867));
#867=PRODUCT('74479325207xxx_252012','74479325207xxx_252012',
'74479325207xxx_252012',(#869));
#868=PRODUCT_CATEGORY('','');
#869=PRODUCT_CONTEXT('',#871,'mechanical');
#870=APPLICATION_PROTOCOL_DEFINITION('international standard',
'automotive_design',2010,#871);
#871=APPLICATION_CONTEXT(
'core data for automotive mechanical design processes');
ENDSEC;
END-ISO-10303-21;
